<svg width="60" height="60" viewBox="0 0 60 60" fill="none" xmlns="http://www.w3.org/2000/svg">
<path d="M6.66667 60C4.83333 60 3.26389 59.3472 1.95833 58.0417C0.652778 56.7361 0 55.1667 0 53.3333V6.66667C0 4.83333 0.652778 3.26389 1.95833 1.95833C3.26389 0.652778 4.83333 0 6.66667 0H36.6667V6.66667H6.66667V53.3333H53.3333V23.3333H60V53.3333C60 55.1667 59.3472 56.7361 58.0417 58.0417C56.7361 59.3472 55.1667 60 53.3333 60H6.66667ZM13.3333 46.6667H20V23.3333H13.3333V46.6667ZM26.6667 46.6667H33.3333V13.3333H26.6667V46.6667ZM40 46.6667H46.6667V33.3333H40V46.6667ZM46.6667 20V13.3333H40V6.66667H46.6667V0H53.3333V6.66667H60V13.3333H53.3333V20H46.6667Z" fill="#E5451D"/>
</svg>
