<svg width="14" height="14" viewBox="0 0 14 14" fill="none" xmlns="http://www.w3.org/2000/svg">
<path d="M12.9625 13.75C11.4 13.75 9.85625 13.4094 8.33125 12.7281C6.80625 12.0469 5.41875 11.0813 4.16875 9.83125C2.91875 8.58125 1.95312 7.19375 1.27188 5.66875C0.590625 4.14375 0.25 2.6 0.25 1.0375C0.25 0.8125 0.325 0.625 0.475 0.475C0.625 0.325 0.8125 0.25 1.0375 0.25H4.075C4.25 0.25 4.40625 0.309375 4.54375 0.428125C4.68125 0.546875 4.7625 0.6875 4.7875 0.85L5.275 3.475C5.3 3.675 5.29375 3.84375 5.25625 3.98125C5.21875 4.11875 5.15 4.2375 5.05 4.3375L3.23125 6.175C3.48125 6.6375 3.77812 7.08437 4.12187 7.51562C4.46562 7.94688 4.84375 8.3625 5.25625 8.7625C5.64375 9.15 6.05 9.50938 6.475 9.84063C6.9 10.1719 7.35 10.475 7.825 10.75L9.5875 8.9875C9.7 8.875 9.84688 8.79062 10.0281 8.73438C10.2094 8.67813 10.3875 8.6625 10.5625 8.6875L13.15 9.2125C13.325 9.2625 13.4688 9.35312 13.5812 9.48438C13.6937 9.61563 13.75 9.7625 13.75 9.925V12.9625C13.75 13.1875 13.675 13.375 13.525 13.525C13.375 13.675 13.1875 13.75 12.9625 13.75ZM2.51875 4.75L3.75625 3.5125L3.4375 1.75H1.76875C1.83125 2.2625 1.91875 2.76875 2.03125 3.26875C2.14375 3.76875 2.30625 4.2625 2.51875 4.75ZM9.23125 11.4625C9.71875 11.675 10.2156 11.8438 10.7219 11.9688C11.2281 12.0938 11.7375 12.175 12.25 12.2125V10.5625L10.4875 10.2063L9.23125 11.4625Z" fill="white"/>
</svg>
