<svg width="67" height="55" viewBox="0 0 67 55" fill="none" xmlns="http://www.w3.org/2000/svg">
<path d="M0.335873 39.6086C1.039 39.134 1.44988 39.3626 1.4383 38.781L5.58761 36.961C5.95798 37.34 6.11134 37.0825 6.72476 36.961C6.65532 37.016 6.06215 37.2995 6.01585 37.3806L7.11828 37.8638L7.04884 36.9002C6.74502 36.9321 6.5309 37.1144 6.22129 37.1751C6.51353 36.935 6.77684 36.9465 6.95914 36.8105C7.88796 36.1132 9.03668 35.5374 10.1333 35.0571C10.2635 34.9992 10.7381 34.8024 10.8365 34.788C11.0043 34.7648 11.638 34.7706 11.8521 34.6954C11.8636 34.8227 11.0824 34.9934 11.2502 35.1439L12.0112 35.52L12.0807 34.7995C11.9939 34.6143 11.8492 34.8227 11.7363 34.7272C12.0951 34.6143 11.9505 34.5102 12.1096 34.2729C12.5523 33.619 14.9076 32.5947 15.6947 32.6207C15.8741 32.6265 16.039 32.7567 16.1808 32.7567C16.3486 32.7567 17.0778 32.3082 17.2572 32.3024C17.8388 32.2677 16.5077 32.7538 16.4209 32.7654C16.3486 32.858 16.9128 32.9998 16.9968 33.049C17.1733 33.1531 17.2803 33.3759 17.4742 33.4656L20.524 34.895C20.7062 35.06 20.7062 35.2885 20.6947 35.5171L21.3833 35.3117L21.201 35.5779L18.1426 37.1375C18.0674 37.1983 18.0587 37.2214 18.1426 37.2764C18.4782 37.4992 19.4071 37.722 19.844 37.9187C20.116 38.0403 20.4053 38.1936 20.6686 38.3325C21.0303 38.5264 21.0998 38.7723 21.5888 38.645L24.4823 36.9668C24.5025 36.8221 24.4881 36.8568 24.3955 36.8134C24.1582 36.7064 23.8428 36.6543 23.5708 36.5356C22.9256 36.2521 22.3121 35.8904 21.6611 35.6213L21.5888 35.4535C21.6235 35.4535 21.6582 35.4506 21.6929 35.4535C21.936 35.4622 23.7821 36.3215 24.0946 36.498C24.1669 36.5385 24.6241 36.6919 24.6183 36.7324C24.5951 36.9726 24.8006 37.7365 24.4476 37.777V37.1086C23.4869 37.8319 22.5176 38.59 21.392 39.0472V39.5796L22.4163 39.9355C22.4221 39.6635 22.3932 39.5565 22.4047 39.2816V39.1803L24.5807 37.6525C24.6704 37.6063 24.5807 37.6439 24.6067 37.5744C25.44 36.9292 25.4343 37.3863 25.9319 37.3169C25.9261 37.2532 25.9522 37.1809 25.9175 37.123C25.8596 37.0247 24.4823 36.3707 24.2566 36.2723C23.8833 36.1103 23.0442 35.7341 22.8995 35.6647C22.8937 35.4188 23.8197 35.9164 24.138 36.0466C24.4996 36.1913 25.333 36.7266 25.6194 36.77C25.7641 36.7903 25.7786 36.8192 25.7902 36.7324C25.8191 36.5385 25.8307 36.391 25.8509 36.1132L23.2612 34.6462L23.1021 34.6346C23.0876 34.895 23.1021 35.1612 23.0934 35.4216C23.0818 35.7775 23.0587 35.7197 22.8937 35.6676V35.1844C22.6333 35.1236 22.3787 35.3696 22.1646 35.3898C21.7103 35.4361 21.0737 34.84 20.6686 34.6201C20.2259 34.3771 18.3625 33.5872 17.9343 33.3238C18.2988 33.0634 19.7919 34.0762 19.9684 34.1485C20.2201 34.2527 20.5818 34.4118 20.8278 34.5304C21.013 34.6201 21.8289 35.1959 21.936 35.0831C22.0257 34.8429 21.9939 34.759 22.0025 34.597C22.0199 34.3308 22.072 34.0675 21.9302 33.9112C21.8289 33.7984 20.8856 33.373 20.6657 33.2457L19.138 32.2909C20.223 32.7307 21.2849 33.2775 22.2543 33.9344C22.3469 33.9575 22.4568 33.8997 22.5494 33.8765C22.1067 34.3481 22.3642 34.5362 22.2745 35.1178C22.9748 35.1757 22.7896 34.6549 22.9371 34.4899C22.995 34.4263 23.1455 34.3221 23.2496 34.244C23.3191 34.1919 23.4204 34.1311 23.4956 34.0819C24.083 33.6913 24.8353 33.3991 25.44 33.0142L25.5789 32.4297C24.6993 32.7451 23.9209 33.3065 23.076 33.6826C22.914 33.755 22.7172 33.836 22.5465 33.8765C22.6015 33.8186 22.6275 33.7145 22.7288 33.6797L25.3301 32.2822C25.4892 32.1896 25.5008 31.961 25.3243 31.8887L22.289 30.303C20.9435 30.5056 19.7514 31.2203 18.5506 31.8105L19.3984 32.4211L18.3104 31.9436C18.1513 31.9755 18.0182 33.1676 18.2728 33.3209H17.9285L17.9979 32.152C17.9314 32.0854 17.4221 32.3574 17.3092 32.395C17.2427 32.4182 17.0893 32.4905 17.1009 32.3603C17.3353 32.2446 17.9371 32.1057 18.05 31.8944C18.076 31.8453 18.0471 31.7411 18.0789 31.6861C18.2583 31.4054 21.4615 30.2336 21.9736 30.1034C22.263 30.031 22.5523 30.112 22.8474 29.8748C23.024 29.733 22.9053 29.5565 23.024 29.4321C23.0905 29.3626 24.5373 28.4569 24.6299 28.4193C24.8035 28.3499 26.4065 27.803 26.4875 27.8638C26.774 28.0779 26.962 27.9477 27.4568 27.8638C27.4163 27.9274 27.1356 28.1531 27.1877 28.2284C27.2138 28.2689 27.888 28.6537 28.0095 28.7231C28.4001 28.9488 29.3376 29.542 29.6848 29.6722C29.8469 29.733 30.0205 29.6751 30.1912 29.7446C30.1044 29.4176 30.1767 28.972 30.1218 28.6768C30.0812 28.4483 29.7485 28.4367 29.5662 28.3354C29.3202 28.1965 28.4088 27.5339 28.1918 27.6381C28.0153 27.7162 28.0066 28.3152 28.0674 28.4193C28.1889 28.6277 29.0454 28.8157 29.2508 28.9228C29.3636 28.9836 29.6646 29.3105 29.6038 29.4668C29.2682 29.0819 28.7994 29.0472 28.3799 28.8302C27.8966 28.5785 27.804 28.4425 27.7751 27.884C27.5841 27.9332 27.4221 27.9882 27.2253 28.0229C27.3642 27.7972 27.668 27.8696 27.7462 27.7509C27.8301 27.6236 27.7172 27.3979 27.8417 27.2272C27.9198 27.1172 28.8862 26.5299 29.0511 26.5617L28.2612 27.1635C28.4001 27.3719 28.6634 27.3545 28.8573 27.4616C29.2855 27.6959 29.5922 28.1416 30.1189 28.2312C30.1391 27.4703 30.3619 26.8684 30.6021 26.1653C30.5182 26.0872 29.3608 26.5299 29.1582 26.6167C28.2583 26.9986 28.9325 26.7064 28.9499 26.5791C29.2942 26.4546 29.6443 26.3389 29.9829 26.1971C30.1131 26.1421 30.2462 26.1045 30.3648 26.0582C30.495 26.0061 30.6281 25.9888 30.741 25.9222C30.7873 25.8962 31.3775 25.1091 31.3978 25.06C31.4383 24.9616 31.3602 24.8632 31.3804 24.7706C31.4759 24.2903 31.6785 23.8939 31.9852 23.5148C32.3903 23.0084 34.028 21.5443 34.5807 21.2174C35.1333 20.8904 36.8868 20.1988 37.4597 20.1699C38.1773 20.1323 38.1542 20.2567 38.9296 20.0542C40.6252 19.6086 42.3237 19.4726 43.9296 20.2972L45.9435 19.4205C45.9088 18.4309 45.9898 17.3285 45.7467 16.3707C45.4024 15.0079 44.1264 13.1878 44.4649 11.8105C44.6559 11.0322 45.223 10.6821 45.9522 11.1334C46.7363 11.6196 47.2745 13.5669 47.6854 14.4321C48.0963 15.2972 49.3087 17.6005 50.1044 18.0084C51.0882 18.509 51.7219 17.8175 51.881 16.8858C52.0807 15.711 51.7103 14.4523 51.0592 13.4685C50.6657 12.8753 49.3926 12.5021 48.7502 12.1259C47.5697 11.4344 46.5338 10.3319 46.0477 9.03854C45.4487 7.43553 45.9782 5.95984 47.7259 7.29086C48.5824 7.9419 49.2826 9.13113 50.4487 9.35683C50.2809 9.27581 50.2462 9.24109 50.1391 9.15139C49.083 8.29202 48.7242 6.74688 50.5876 7.22141C50.2693 6.27234 49.734 4.4581 50.4487 3.60452C51.2039 2.70174 52.3237 3.97489 52.7896 4.57095C53.7647 5.81516 54.5112 7.41817 55.4285 8.71736C56.3399 9.04433 57.4742 9.5941 58.0847 10.3696C58.2439 10.5721 58.458 11.0785 58.5737 11.1884C58.7907 11.391 59.1495 11.391 59.4707 11.8047C60.7468 13.4483 59.1582 17.2764 58.7358 19.1282C58.3133 20.9801 58.0413 23.4367 58.1599 25.3117C58.2612 26.9263 59.1466 28.3267 59.4707 29.8921C58.7271 29.2064 58.3104 28.049 58.0442 27.0825C57.3903 24.7185 57.8677 21.7729 58.3914 19.406C58.7965 17.5715 60.0581 14.3858 59.6327 12.6091C59.5199 12.1433 59.0974 11.6051 58.6461 11.4257C58.6113 11.4633 58.7792 12.259 58.7849 12.4211C58.8197 13.3904 58.1484 16.7816 57.7664 17.6815C57.7317 17.7654 57.7288 17.884 57.6102 17.9043C57.7404 16.2434 58.3596 14.652 58.4348 12.9766C58.5245 10.9975 57.7433 9.91238 55.8856 9.29028C56.447 10.1265 57.2977 10.8846 57.6131 11.8713C57.9805 13.0229 57.6565 15.0744 57.1617 16.1797C57.0778 16.3678 56.9823 16.5675 56.7855 16.663C57.2543 15.2885 57.8156 13.292 57.2485 11.8916C56.9389 11.1277 56.2502 10.5779 55.7525 9.94132C54.5662 8.41933 53.6692 6.70347 52.5668 5.13229C52.1704 4.56806 51.0853 2.99398 50.5471 4.25845C49.8932 5.79491 51.6524 8.51482 52.3874 9.82558C53.8486 10.1236 54.6704 10.9917 54.7832 12.4934C54.8295 13.1097 54.7687 13.755 54.7774 14.3539C54.7832 14.8198 55.0292 15.465 54.5778 15.8354C54.5604 15.3435 54.598 14.8429 54.5778 14.351C54.5517 13.6508 54.5546 12.3198 54.326 11.7093C53.8197 10.3609 52.4597 10.4564 51.3312 10.2249C50.5355 10.06 49.6385 9.6809 48.9991 9.18033C48.3596 8.67975 47.2774 7.2706 46.528 7.16354C46.1258 7.10567 46.0824 7.74225 46.0998 8.01424C46.1779 9.24977 47.3179 10.7023 48.2815 11.4141C49.7282 12.4847 51.4875 12.6034 52.0054 14.652C52.2601 15.6647 52.5697 18.3586 51.1489 18.6479C49.2508 19.0328 48.1397 16.4402 47.4973 15.0281C47.0778 14.1051 46.5049 12.1462 45.7844 11.5038C45.3966 11.1566 44.8092 11.2839 44.7253 11.8134C44.491 13.3094 45.8364 15.0339 46.0679 16.527C46.1924 17.3198 46.0593 18.1676 46.175 18.9691C46.5367 21.4633 48.4927 24.3163 50.4748 25.8325C50.6223 25.9454 50.793 25.9483 50.9233 26.0727L50.5095 26.2116C50.6484 26.7758 50.7959 27.3285 50.9753 27.884C51.2676 28.7955 51.6409 29.9269 52.1096 30.7486C52.2398 30.9772 53.2323 32.2764 53.0616 32.4471L52.8272 32.4269C52.6709 32.6034 52.6275 32.6439 52.5118 32.7567C51.8579 33.4049 50.8191 33.8736 50.1275 34.5131C50.0263 34.704 50.8162 35.4737 50.8567 35.7862C50.8827 35.9251 50.7988 35.9106 50.6976 35.8759C50.2404 35.7139 49.6935 34.5536 49.4244 34.1167C48.4175 32.4818 47.5465 30.6936 46.9996 28.8215C46.2705 26.3302 46.3255 21.8424 43.5448 20.5634C42.3064 19.9934 40.5992 19.8314 39.2768 20.141C39.1871 20.1612 38.8428 20.2191 38.866 20.3493L40.7757 21.1277C40.8741 21.1826 41.4325 21.6745 41.3457 21.7613C40.6165 21.7642 40.2201 21.2637 39.6009 20.9917C38.8718 20.6705 37.9719 20.4564 37.1733 20.52C36.4383 20.5779 34.4128 21.3331 33.9354 21.9002C33.866 21.9841 33.8746 22.0623 34.002 22.0362C34.4591 21.935 34.8613 21.6774 35.3851 21.6282C36.4962 21.527 38.4724 21.8858 39.3636 22.5889C39.4157 22.6294 39.6414 22.9882 39.6212 23.0027C38.8573 23.0461 38.186 22.5194 37.4713 22.2937C37.1096 22.1809 36.3746 21.9957 36.0072 21.9668C34.3347 21.8279 31.9649 23.0634 31.5598 24.7937L32.7549 24.0935C33.6027 23.7752 34.3839 23.4772 35.3069 23.564C35.8972 23.619 37.0199 23.8736 37.2803 24.4494C36.8637 24.406 36.5338 24.0704 36.1287 23.9836C33.5043 23.4251 31.1027 24.7185 30.5471 27.395C30.2028 29.0443 31.3023 30.8383 32.804 31.5125C33.6605 31.8944 35.605 32.0218 36.1084 31.0322L35.2838 29.0993L35.142 29.108C34.8874 29.8314 34.0974 29.9037 33.6663 29.27C32.8156 28.0113 34.3926 25.9917 35.2462 27.8291C35.7323 28.8765 36.0072 30.3985 36.7305 31.3071C36.9881 31.6311 37.6941 32.2127 38.0442 32.476C38.6403 32.9274 39.3058 33.2862 39.9366 33.6855C40.0552 34.2961 39.1032 33.5756 38.7965 33.5495C38.6895 33.6624 39.4099 34.869 39.5257 35.06C40.304 36.3447 41.2502 37.7914 42.0893 39.0443C42.6362 39.8603 43.4059 40.5721 43.9238 41.3447C44.0222 41.4894 44.3723 41.9523 44.002 41.9581C43.6316 41.9639 42.8011 40.5056 42.4829 40.2365C41.9649 40.6068 41.4701 41.0235 40.9551 41.3939C34.8527 45.7978 28.9412 50.5056 22.778 54.8458C22.668 54.9471 22.4713 55.0397 22.2369 54.8603C18.3365 52.7046 14.4968 50.2278 10.5905 48.0779C7.73749 46.5067 4.74559 44.9297 1.95335 43.2775C1.30809 42.8956 0.691775 42.4732 0.0638818 42.0652C-0.0981552 41.8742 0.0957105 41.6774 0.124646 41.4922C0.199877 40.9743 0.220132 40.4506 0.214345 39.9268M50.7988 7.55127C50.2722 7.48183 49.4215 7.31401 49.8555 8.11551C49.9771 8.33831 50.9811 9.25556 51.2271 9.42917C51.5049 9.62593 51.6814 9.73299 52.0488 9.67512C51.583 9.00093 51.1084 8.31516 50.7988 7.55127ZM46.0535 19.597C45.605 19.7793 45.0841 19.9211 44.6733 20.1815C43.9846 20.6184 44.5199 20.6763 44.8787 21.0814C45.0726 21.2984 45.2057 21.5559 45.3388 21.8076C45.4834 21.8366 46.418 21.391 46.4586 21.2723L46.0535 19.597ZM46.6061 21.4604C46.5685 21.4228 45.6773 21.8337 45.6165 21.8829C45.5268 21.9523 45.4805 21.9841 45.5066 22.1144C45.6021 22.2446 45.5934 22.1954 45.6947 22.1693C45.8538 22.1288 46.8 21.6601 46.6061 21.4604ZM46.7219 21.9494C46.4701 22.1896 45.8104 22.4095 45.8509 22.7972C45.8625 22.9216 46.1403 23.5582 46.2271 23.6682C46.3139 23.7781 46.9562 24.2179 47.0575 24.2179C47.2253 24.0733 47.9082 23.7608 47.8937 23.5611L46.7219 21.9494ZM47.1588 25.1786C47.2774 25.3001 48.2699 24.3858 48.4667 24.3134L48.0529 23.7608L47.1906 24.351L47.1559 25.1786H47.1588ZM46.9418 24.2932L46.3312 24.1485C46.4354 24.4581 46.4933 25.0079 46.8492 25.112C46.9794 25.1497 46.9418 25.0889 46.9505 25.0108C46.9649 24.9124 46.9649 24.3221 46.9418 24.2932ZM48.6518 24.5015L47.5147 25.3493C47.4829 25.7168 48.8602 26.174 49.1756 26.2723C49.3029 26.0785 49.8989 25.8644 49.8382 25.6387C49.815 25.5547 48.7358 24.4928 48.6518 24.5015ZM48.2612 26.9002C48.1628 26.7324 46.9157 25.7573 46.8145 25.8672C46.9071 26.2058 47.2398 28.8968 47.4684 28.8968L48.3654 28.1387C48.3799 27.939 48.3538 26.9899 48.2959 27.0102C48.076 27.2127 47.6478 27.5194 47.37 27.6294C47.263 27.6728 46.9447 27.7799 46.9678 27.6381L48.2612 26.9002ZM49.2942 27.4529L50.2925 26.6948C50.5211 25.3638 49.8237 26.174 49.2537 26.5559L49.2942 27.45V27.4529ZM48.5361 28.0056L49.1437 27.6207C49.1842 27.2966 49.1437 26.77 49.0917 26.5877C49.0569 26.4691 48.0095 26.0177 47.8677 26.1334C47.94 26.3389 48.5708 26.7816 48.5679 26.935C48.5564 27.2764 48.5274 27.6236 48.5361 28.0027V28.0056ZM50.3966 26.9726C50.3532 26.9234 49.5922 27.4703 49.5459 27.5194C49.4765 27.5947 49.4996 27.6352 49.4996 27.7307L50.4632 27.8696L50.3937 26.9755L50.3966 26.9726ZM34.5402 29.1688C34.5922 29.1369 34.9655 28.1531 34.9597 28.049C34.9424 27.7741 34.6733 27.4095 34.3781 27.45C34.1409 27.4876 33.9325 28.2168 33.9441 28.4367C33.9557 28.6768 34.2305 29.3626 34.5402 29.1688ZM50.9464 29.2469C50.8336 28.9604 50.8162 28.4685 50.5702 28.2804C50.4198 28.1676 49.5315 27.9535 49.245 27.8696C48.1831 28.2139 49.8555 28.6711 50.2809 28.8765C50.3822 28.9257 50.8943 29.3047 50.9493 29.244L50.9464 29.2469ZM26.1229 28.2284C25.6628 28.3152 25.0494 28.7434 24.6472 28.9604C24.4939 29.0414 23.6084 29.3481 23.6576 29.5565L26.7421 31.3649L27.1038 31.4257C27.37 31.1942 29.5488 30.1786 29.5836 30.0397C29.6125 29.9211 29.1871 29.7127 29.0801 29.6491C28.3972 29.2469 27.2803 28.5698 26.5801 28.2891C26.4007 28.2168 26.3226 28.1907 26.1229 28.2284ZM48.8428 31.7266C49.1929 31.4402 50.2606 30.8036 50.469 30.5258C50.6194 30.3233 50.6021 29.8458 50.6715 29.5912C50.6513 29.5709 49.9134 30.0137 49.8613 30.031C49.9829 29.9153 50.6571 29.435 50.7381 29.2816L48.6084 28.3123L47.5118 29.053L48.1744 30.9541C48.2149 31.0553 48.2902 31.1045 48.3972 31.1103C48.2323 31.4054 48.539 31.6138 48.5998 31.8944M50.8799 29.3134C50.8712 29.4523 50.5558 30.2683 50.7757 30.277C50.7959 30.277 51.0245 30.1178 51.0564 30.0773C51.3052 29.7735 50.9435 29.2469 50.8799 29.3134ZM26.5598 32.7191C26.5859 32.3082 26.609 31.961 26.664 31.5183C26.1866 31.2752 25.6397 31.0524 25.1738 30.8007C24.9279 30.6676 23.377 29.6809 23.2468 29.7995C23.2265 30.0455 23.0645 30.3522 23.2757 30.5605L25.5182 31.7642C25.5529 32.016 26.4238 32.8493 26.5598 32.7191ZM30.3272 30.0166C30.3069 29.9818 30.0118 29.7938 29.9626 29.9326L29.8613 30.5547C30.1275 30.5721 30.4834 30.2828 30.3272 30.0194V30.0166ZM29.5865 30.3493L27.0373 31.553C26.9071 31.9639 26.8636 32.3632 26.8318 32.8291C27.2109 32.8811 27.1819 32.1143 27.2543 32.0275L29.4881 30.8325L29.5865 30.3464V30.3493ZM33.3712 32.1462C32.234 31.8887 31.4933 31.1248 30.6889 30.3464C30.4227 31.5993 29.9597 33.1242 29.2855 34.215C29.0425 34.6057 28.649 34.9963 28.4001 35.3985C28.2294 35.6734 27.8822 36.0929 28.2757 36.2405C29.5112 36.6977 31.7942 35.52 32.4944 34.461C32.6565 34.2122 33.4522 32.2561 33.3712 32.1462ZM51.4933 30.4911C51.3833 30.4622 51.2907 30.5142 51.1981 30.5663C50.3909 31.0148 49.6414 31.8221 48.7734 32.2098L48.9557 32.6207L51.609 30.8354L51.4933 30.494V30.4911ZM30.2751 30.7631C30.1825 30.6763 28.2844 31.7266 28.0326 31.8626C27.9603 31.9002 27.8359 31.9205 27.8648 32.0362C28.1397 32.0912 29.3752 32.9448 29.5141 32.8262L30.2751 30.7631ZM51.8376 31.1103C51.6611 30.983 50.2954 32.0362 50.0755 32.2069C49.7861 32.4297 49.0598 32.7885 49.2219 33.0953C49.3984 33.428 49.679 33.7984 49.844 34.1774L52.5668 32.2793C52.5668 31.6688 52.0836 31.5328 51.8376 31.1103ZM36.4065 31.3128L35.4429 32.0362L37.3237 33.3007C37.4829 33.156 37.9024 33.0605 37.859 32.7972C37.8417 32.6931 36.3573 31.7903 36.4065 31.31V31.3128ZM37.0083 33.3991C36.609 33.1676 36.2097 33.0316 35.8336 32.748C35.6484 32.6091 35.3417 32.2156 35.168 32.1664C34.9221 32.097 34.543 32.3285 34.2711 32.2764C34.2363 32.4384 34.2913 32.3863 34.3608 32.4297C35.1073 32.9101 35.8625 33.4569 36.609 33.972C36.5454 34.5507 36.609 34.8458 37.1646 35.0339L37.0083 33.3991ZM33.8457 32.4818C33.7097 32.667 33.2352 33.6942 33.1137 33.9778C32.9314 34.406 32.7086 34.7677 32.4163 35.1265C32.4481 35.3175 33.1657 35.656 33.3422 35.6473C33.594 35.6358 34.3405 35.0513 34.6819 34.9269C34.7456 34.9037 35.006 34.7127 34.9887 34.84C33.866 35.3696 32.9458 36.1306 33.3075 37.5137C33.3538 37.5628 34.4071 36.935 34.4823 36.8568C34.572 36.7613 34.4939 36.6687 34.5199 36.6167C34.6038 36.4488 35.8885 36.0466 36.1374 35.8991C36.2676 35.7718 36.1808 35.3725 36.2213 35.1554C36.2734 34.8719 36.447 34.5275 36.4788 34.2382C36.5049 33.9951 35.984 34.3019 35.9117 34.3453C35.8538 34.38 35.6252 34.4552 35.5326 34.5102C35.3735 34.5999 34.7919 34.9876 34.6038 35.0079C34.925 34.652 35.877 34.1225 36.337 33.998M28.8949 34.2237C27.9805 33.9025 26.9534 33.3991 26.12 32.9072C25.8046 33.1473 23.3827 34.2671 23.3856 34.4465L26.0766 35.9627C26.149 36.0148 26.201 35.9917 26.2734 35.9627C26.6061 35.8325 27.2138 35.3493 27.5436 35.1381C27.8185 34.9616 28.3856 34.6462 28.5882 34.4841C28.701 34.3944 29.2653 33.3296 29.2334 33.2168L27.4481 32.3458C27.3382 32.7741 27.3642 32.9245 27.3093 33.2718C27.3324 33.3788 28.0905 33.6248 28.2525 33.7116C28.3104 33.7434 28.9991 34.1225 28.892 34.2237H28.8949ZM12.7722 34.759C12.6015 34.7243 12.4597 34.6433 12.289 34.6201L12.3555 35.6878L16.1518 37.3487L16.0187 38.292C15.7641 38.3672 15.9233 37.6352 15.8712 37.5802C14.5865 37.9535 13.4696 38.781 12.2196 39.27C12.0025 39.3597 12.0344 40.1699 12.1848 40.1988C12.4452 40.0281 12.7577 39.9558 13.024 39.7995C13.6808 39.4147 14.2074 39.0819 14.9076 38.7203C15.5442 38.3904 16.1258 37.9419 16.8405 37.8175L16.6669 36.8192C15.5442 36.174 14.2103 35.6589 13.1137 34.9992C12.9777 34.9182 12.8793 34.8777 12.7693 34.7561C12.8503 34.7735 12.969 34.7359 13.0587 34.7735L16.8723 36.7584C17.072 36.7816 17.1414 36.5762 17.2919 36.4922C18.2496 35.9483 19.2855 35.5316 20.2086 34.9297L16.7826 33.3267C15.9696 32.3603 14.083 33.2139 13.186 33.7637C12.7549 34.0299 12.3208 34.2642 12.7664 34.7561L12.7722 34.759ZM37.3903 33.4425C37.3411 33.7723 37.4771 34.7937 37.4424 35.1381L37.616 35.2451L38.8226 34.4494L38.892 34.3134C38.6489 33.7723 38.7647 33.3441 38.1571 33.0403C38.0037 33.0113 37.3932 33.4425 37.3932 33.4425H37.3903ZM40.6021 37.369L40.5558 37.0507L39.0511 34.6983L36.1316 36.3765L39.2971 38.0316L40.6021 37.3661V37.369ZM28.1397 35.0339C27.7664 35.0223 27.5263 35.3435 27.2658 35.5027C26.8897 35.7341 26.7855 35.7486 26.4354 36.0351C26.3717 36.0872 26.2907 36.1421 26.256 36.1797C26.1981 36.2376 26.094 36.7295 26.0998 36.851C26.2184 36.9697 27.3555 35.9164 27.6391 35.9106L28.1368 35.031L28.1397 35.0339ZM15.5268 37.2417C15.5066 37.2185 15.0523 37.0999 14.9308 37.0449C13.5072 36.4083 12.0344 35.8701 10.6715 35.1091L7.67384 36.5848C7.66516 36.851 11.473 38.6248 11.9852 38.8939C12.6941 38.7058 13.3046 38.2747 13.9759 37.9969C14.2797 37.8725 14.6154 37.8262 14.925 37.7046C15.087 37.641 15.6802 37.4269 15.5268 37.2417ZM20.4892 35.1034C20.4429 35.0571 19.9366 35.2741 19.844 35.3175C19.2913 35.575 18.0645 36.1913 17.6015 36.5183C17.1385 36.8453 17.0836 37.1028 17.0749 37.6554L17.804 37.994C17.7317 37.7538 17.5899 37.4616 17.7751 37.2417C17.9603 37.0218 19.355 36.281 19.7109 36.0785C20.1883 35.8094 20.6223 35.8788 20.4921 35.1034H20.4892ZM37.098 35.6531C37.1935 35.5229 36.6322 35.2509 36.5483 35.1728V35.8615L37.098 35.6531ZM33.1686 35.8615C32.8388 35.6676 32.5118 35.5403 32.2398 35.3117L31.3804 36.0322C31.5627 36.3562 32.0141 36.336 32.2138 36.4431C32.2745 36.4778 32.3613 36.5356 32.3787 36.5588C32.4076 36.5964 32.4163 36.6282 32.4047 36.7295C32.3932 36.8308 32.2948 37.0073 32.4858 37.1288C32.5494 37.1693 32.9429 37.259 32.9661 37.2359L33.1715 35.8586L33.1686 35.8615ZM31.9447 37.8696C32.4452 37.2272 32.3237 36.935 31.7219 37.0304C31.8116 36.8597 32.0662 36.8655 31.9968 36.6196C31.6756 36.6745 31.3139 36.3186 31.1605 36.2231C31.0911 36.1797 30.7207 36.4228 30.3127 36.553C29.7803 36.7237 28.0413 36.987 27.7201 36.4488C27.6391 36.3128 27.7086 36.1103 27.5523 36.1334C27.4742 36.145 26.2444 36.9263 26.2097 36.9957C26.1518 37.1143 26.2936 37.1028 26.3486 37.1288C27.2659 37.5484 28.0992 37.8262 29.0106 38.2747C29.1206 38.3296 29.2682 38.3817 29.3694 38.4396L32.2138 36.6716C32.3006 37.0854 29.3984 38.4801 29.5286 38.8794C29.8729 39.0675 30.2143 38.8418 30.5297 38.6942C31.0448 38.4483 31.5627 38.0056 32.0691 37.7885L31.1055 38.7521C31.7305 38.645 32.2861 38.0779 32.8966 37.8551C32.9719 37.7538 32.6131 37.4703 32.5147 37.4471C32.3584 37.4095 32.4395 37.6236 32.3179 37.7278C32.2253 37.8088 32.0025 37.8464 31.9505 37.8696H31.9447ZM34.8932 36.6196C34.7716 36.7816 35.4632 37.0131 35.55 37.0941C35.741 36.9928 35.8133 36.4054 35.6108 36.3476L34.8961 36.6196H34.8932ZM40.4748 37.722L39.2074 38.3441L36.1895 36.6659L36.0245 36.553C35.9319 36.8279 35.7005 37.1115 35.9724 37.2966C36.8058 37.8696 38.2294 38.3267 39.0888 38.8939L39.1524 38.2718L39.2682 38.2775L39.2277 38.8418C39.5286 38.6479 39.899 38.4367 40.1709 38.2255C40.2751 38.1444 40.5847 37.9911 40.4748 37.722ZM7.92557 36.987C7.59282 36.7671 7.21955 36.7903 7.26006 36.8944L7.39606 38.0316L11.9447 40.4072L11.8 38.9691C10.7525 38.5032 9.67036 38.0056 8.64606 37.4703C8.34803 37.314 8.15995 37.1404 7.92557 36.9841V36.987ZM31.5164 38.9604L34.9915 40.7544L37.9227 38.5843L34.8584 36.9697C34.6183 37.0536 34.381 37.1751 34.1582 37.2966C33.4869 37.6583 32.1877 38.3325 31.6322 38.7666C31.5569 38.8273 31.4904 38.836 31.5164 38.9604ZM8.70682 41.0987C9.13796 40.6097 9.90763 40.3956 10.4661 40.0686C10.5413 40.0252 10.7323 39.9355 10.7062 39.8256C9.28553 39.1311 7.90532 38.3036 6.45856 37.6641C6.29363 37.5918 6.1287 37.5831 5.98113 37.5223C5.83356 37.4616 5.7265 37.3053 5.54131 37.2677C5.21434 37.204 4.2537 37.8117 3.88622 37.965C3.19467 38.2544 2.36712 38.4367 1.7508 38.862C2.05462 39.0356 2.06041 39.0067 2.27742 39.163C2.8677 39.5796 3.94409 40.0281 4.62117 40.4014C5.414 40.8383 6.20971 41.2868 6.96782 41.7816L8.36539 41.31L7.08934 41.9957V42.965C7.24559 43.2226 7.69988 42.884 7.89374 42.7972C7.98055 42.7104 7.85034 42.5686 7.89374 42.4934C7.99502 42.3198 10.333 41.3186 10.6455 41.0032C10.7844 40.8354 10.8104 40.4506 10.7815 40.2422C10.7699 40.1641 10.8104 40.1034 10.6802 40.141C10.0697 40.3233 9.37233 40.9772 8.7155 41.1045L8.70682 41.0987ZM27.5234 38.5698C26.8231 38.1329 26.1808 37.8059 25.4545 37.4818C25.3793 37.4471 25.3272 37.4674 25.1999 37.4645C25.0726 37.4616 24.2132 38.1068 23.9325 38.3094L22.697 39.2006L25.822 40.465L28.2757 38.8505C28.5911 39.0617 29.1958 39.2584 29.2797 38.9054C29.2913 38.5466 28.4348 38.2486 27.9169 38.0461C27.399 37.8435 26.7479 37.5108 26.1837 37.1954C26.1663 37.1838 26.1895 37.3053 26.1981 37.4789C26.7537 37.8319 27.1993 38.0953 27.7664 38.4251C28.1744 38.6653 29.9337 39.2758 28.9065 39.2006C28.8428 39.2584 27.6073 38.6103 27.5292 38.5611L27.5234 38.5698ZM21.1027 38.8302L17.94 37.4442L17.9487 38.1242C18.2323 38.2399 18.5564 38.3238 18.8341 38.4425C19.2363 38.6161 20.3706 39.0212 20.4777 39.4234C20.5211 39.5883 20.3735 39.8082 20.4198 39.9934C21.0853 39.7851 21.1837 39.5247 21.1027 38.8302ZM22.4829 51.3939L22.6102 51.4546L22.6883 51.4894C27.8011 47.722 33.1426 44.0385 38.3133 40.3522C38.8573 39.9645 39.3868 39.6057 39.925 39.2093C40.3359 38.9083 40.7757 38.6277 41.1981 38.3441C41.1576 37.6468 40.9059 37.8927 40.5182 38.1502C35.2288 41.6225 30.1623 45.821 24.9626 49.4002C24.2826 49.869 23.3856 50.52 22.6883 50.9164C22.5783 50.9801 22.48 51.0322 22.3469 51.0264L22.3353 51.3129L22.48 51.3968L22.4829 51.3939ZM13.5998 39.5825C13.5737 39.7069 13.6345 39.7185 13.7184 39.7735C14.3405 40.1641 15.5413 40.7197 16.2386 41.0438C16.4846 41.1566 16.745 41.2608 16.9968 41.3591L17.8098 41.0061L20.142 39.2758C19.4013 38.9488 18.6663 38.5611 17.9169 38.266C17.1675 37.9708 16.9678 37.9535 16.1692 38.266C15.278 38.6132 14.5054 39.2961 13.5998 39.5883V39.5825ZM22.7635 54.1919C22.8359 54.2671 23.5969 53.6913 23.7242 53.6016C29.7051 49.2961 35.631 44.814 41.5135 40.3811C41.664 40.2683 42.2687 40.005 42.2369 39.788C42.2253 39.7098 41.4152 38.483 41.3341 38.483C39.8527 39.7127 38.2468 40.7718 36.69 41.9002C32.9458 44.6115 29.2132 47.34 25.4458 50.0195C25.0552 50.2972 22.9429 51.5385 22.7838 51.608L22.7664 54.1919H22.7635ZM31.2329 39.0299C31.2242 38.9807 30.9348 38.7579 30.8972 38.7174L30.8075 38.6942C30.5587 38.8505 30.2925 38.9633 30.0321 39.0935C29.7398 39.2411 30.1044 39.2498 30.2288 39.3221C30.5616 39.5218 30.767 39.6722 31.1374 39.814C31.1605 39.6578 31.1518 39.5565 31.1721 39.406C31.1895 39.2758 31.2415 39.0472 31.2358 39.0299H31.2329ZM38.7502 38.9633C38.513 38.9373 38.3856 38.7 38.131 38.755L38.0616 39.5131C38.0934 39.5507 38.5824 39.2035 38.6374 39.1572C38.7097 39.0964 38.7821 39.0877 38.7502 38.9633ZM37.9921 38.8939L35.168 40.7891L35.0986 41.6514L37.697 39.84L37.9921 38.8968V38.8939ZM6.90416 41.8655L1.9302 39.1514L1.6177 39.1803L1.67557 40.0339L6.45277 42.6294L6.8434 42.7567L6.90416 41.8713V41.8655ZM26.5656 41.9118C27.7983 40.5461 27.4192 42.0449 27.2427 42.0623L27.1327 41.3071C27.4655 41.0843 28.0818 40.6879 28.4348 40.3898C28.4493 40.3782 28.3451 39.542 28.2786 39.0993C27.8995 39.3858 25.9638 40.4593 25.8336 40.7544C25.7699 40.8991 25.6889 41.7932 25.7612 41.9263C25.9146 42.0912 27.263 41.2203 27.3035 41.1971C27.6015 41.0987 26.5627 41.8713 26.7624 41.9928C26.6582 41.9928 26.554 41.9205 26.4499 41.987L23.0645 44.0328C22.9343 44.163 23.0297 44.0675 22.8388 44.2324L26.0737 45.8209L29.5199 43.2689C28.675 42.7249 27.4337 42.4384 26.5685 41.9118H26.5656ZM31.3862 39.9153L33.8602 41.1363C33.9672 41.2318 33.8197 41.5704 34.0685 41.7498C34.0974 41.77 34.5662 41.9813 34.5951 41.9841C34.9163 42.016 34.8787 41.0322 34.7543 40.928L31.6177 39.1716C31.4904 39.1803 31.3804 39.7764 31.3862 39.9153ZM29.7224 39.2382C29.6327 39.1456 29.4996 39.3308 29.4099 39.3366C29.2421 39.3453 28.8833 39.1514 28.6866 39.2671C28.5998 39.4581 28.4724 40.2075 28.8312 40.1091C28.8833 40.0947 29.6212 39.5131 29.6761 39.4494C29.7282 39.3887 29.7514 39.27 29.7224 39.2411V39.2382ZM1.40069 39.3771C1.30231 39.3395 0.804623 39.5015 0.91747 39.652L1.33124 39.7909L1.40069 39.3771ZM24.7658 41.7122L25.4487 42.0333C25.6947 42.0912 25.5529 41.4431 25.5442 41.2694C25.5355 41.119 25.5326 40.9107 25.5211 40.7891C25.5037 40.575 24.8555 40.3204 24.6414 40.222C24.3955 40.1091 22.7317 39.406 22.6275 39.5131L22.587 40.0657C22.969 40.2943 24.7832 40.8615 24.8353 41.2752C24.8527 41.4083 24.7253 41.6572 24.7687 41.715L24.7658 41.7122ZM33.8573 42.5108V41.3736C33.3307 41.4894 32.1443 42.4963 31.5917 42.5744C31.6785 42.3487 32.8388 41.7874 33.0008 41.6572C33.1542 41.5328 33.293 41.4546 33.3336 41.391C33.3827 41.3186 33.4001 41.2984 33.5274 41.1653L30.2375 39.6115L27.723 41.2723C27.697 41.3765 27.8156 41.417 27.8793 41.4575C28.3249 41.7411 29.2624 42.0275 29.8035 42.288C30.0407 42.4037 30.3474 42.6902 30.5992 42.7365C31.0419 42.8204 31.3949 42.5195 31.7884 42.4066C31.9678 42.5744 30.8336 42.9332 30.8364 43.0721C30.6657 43.564 31.1055 44.3076 30.6889 44.6809C30.9724 44.7301 31.1171 44.5999 31.3312 44.4639C32.1646 43.9286 32.8851 43.1994 33.7387 42.6873L33.8602 42.5137L33.8573 42.5108ZM20.0755 39.652C19.9366 39.5247 18.1108 41.0814 17.8388 41.2376C17.697 41.3186 17.3208 41.4141 17.2687 41.4604C17.1096 41.5993 17.2109 42.2532 17.1819 42.476C17.5841 42.4326 17.6796 42.0304 17.8706 41.8192C18.2033 41.4488 18.7329 41.2926 19.1061 41.0553C19.2421 40.9685 20.0986 40.3782 20.1304 40.3262C20.223 40.1699 20.0812 39.8314 20.0755 39.652ZM24.4852 41.1653C24.6096 40.983 24.0888 40.9193 23.9846 40.8759C23.0876 40.494 22.1906 40.112 21.2936 39.733C21.0535 39.8892 20.7988 40.0108 20.5645 40.1728C20.3011 40.3522 19.9886 40.6734 19.7282 40.8528C19.19 41.2174 18.5824 41.4749 18.0789 41.8916C18.2612 42.1115 18.5708 42.1346 18.8139 42.259C19.436 42.5744 20.0494 42.9101 20.6773 43.2226C20.8799 43.3238 21.039 43.5466 21.3399 43.5004L24.4881 41.1682L24.4852 41.1653ZM22.5581 51.5733L0.71203 39.788C0.523951 40.3117 0.590502 40.7978 0.573141 41.3389C0.567354 41.527 0.405317 41.799 0.573141 41.961C0.665734 42.0536 1.22129 42.2069 1.40358 42.2995C8.44641 45.8672 15.197 50.303 22.1617 54.0443L22.4424 54.1774L22.5552 51.5733H22.5581ZM16.2849 42.4066C16.1258 42.3661 15.958 42.3719 15.8046 42.2677V42.8175L16.3544 42.6091C16.366 42.5281 16.3226 42.4674 16.2849 42.4037C16.4962 42.4587 16.9215 42.4876 16.8376 42.748C16.8521 42.7683 16.9273 42.7104 16.9418 42.6786C16.9968 42.5629 16.8029 41.8453 16.962 41.6167L16.9071 41.5414L13.2525 39.7822V40.7804C13.2525 40.7949 13.1947 40.8296 13.2149 40.8846C13.2612 40.9569 13.3422 40.9888 13.4117 41.0351C14.0714 41.4546 15.0552 41.8105 15.7815 42.0391C15.9522 42.0941 16.1952 42.2417 16.2821 42.3979L16.2849 42.4066ZM13.0471 39.9963C12.9863 39.9326 12.2456 40.2567 12.289 40.4419L13.0124 40.821C13.1802 40.8065 12.9777 40.1554 13.0471 39.9963ZM10.9811 40.8238L11.6003 40.4448C11.1027 39.9992 10.903 40.1786 10.9811 40.8238ZM15.4603 42.2677C15.495 42.2185 15.2867 42.0825 15.2317 42.0478C14.679 41.6977 12.7896 40.7226 12.2022 40.5287C12.1299 40.5056 12.0662 40.4593 11.9852 40.4737L8.40879 42.4153L8.29594 42.612C9.67904 42.8233 10.8393 43.8649 12.1154 44.406C12.7462 44.0733 13.3422 43.674 13.8544 43.1763L15.4632 42.2677H15.4603ZM24.4852 41.4431L21.5164 43.6074C21.3052 44.0559 21.5656 44.5102 21.5917 44.9558C21.8116 45.0079 21.8694 44.8024 22.0083 44.7185C22.4973 44.4205 22.3555 44.4465 22.6912 44.0906C23.0905 43.6682 23.811 43.3238 24.3376 43.0837L24.4852 41.4402V41.4431ZM30.55 42.8898L27.8127 41.527L27.5263 41.5183C27.5002 41.7382 27.3353 42.0333 27.561 42.1954L30.0407 43.2313C30.0176 43.6132 29.8613 43.9922 29.9337 44.4031L30.55 44.5449V42.8898ZM24.6241 42.7509C24.6964 42.8262 25.3851 42.4066 25.3851 42.2359C25.4256 42.0681 24.8729 41.8539 24.8295 41.8887C24.6906 42.152 24.598 42.4529 24.6241 42.7538V42.7509ZM21.3862 44.9558C21.2271 44.5565 21.4759 43.9951 21.1461 43.7145C20.7641 43.3875 19.5054 42.7857 19.002 42.5513C18.7358 42.4298 18.4551 42.3082 18.1831 42.1954C18.1223 42.1693 18.1339 42.0767 18.0442 42.1954C17.9256 42.5918 18.1542 42.9274 17.9429 43.2978C18.3827 43.4917 18.947 43.7145 19.3376 43.9865C19.5373 44.1254 19.8237 44.4697 20.0176 44.6346C20.2722 44.8458 20.6657 45.0137 20.7699 45.2972L21.3197 45.1583L21.4065 45.1439L21.3891 44.9529L21.3862 44.9558ZM17.7317 42.476C17.4713 42.4442 17.3208 42.6786 17.1125 42.7857C17.1588 42.8956 17.752 43.211 17.8011 43.1647L17.7317 42.476ZM12.8417 46.0611V45.0629C12.8417 45.0281 12.9458 44.7561 12.9805 44.7185C13.4782 44.3944 14.0888 44.0935 14.5604 43.7463C14.6964 43.6479 15.3648 43.1184 15.4343 43.0345C15.5616 42.8782 15.6021 42.6902 15.4285 42.5484C14.274 43.0692 13.3741 43.9749 12.2572 44.5449C12.2022 45.3001 11.8839 45.8499 12.8446 46.0611H12.8417ZM12.0141 45.5779C11.9302 45.2567 12.2109 44.8516 11.9823 44.6086C11.0361 44.0906 10.1362 43.4685 9.14374 43.0374C8.83992 42.9072 8.56793 42.832 8.25833 42.6815C8.20335 42.6554 8.19178 42.56 8.11944 42.6815C8.0471 42.803 7.96319 43.3962 8.02974 43.4975L12.0141 45.575V45.5779ZM16.7132 42.803C16.6756 42.7451 16.7363 42.6265 16.664 42.6149C16.3775 42.9014 15.9406 42.9564 15.6021 43.1387C15.2346 43.3383 14.9279 43.6769 14.5836 43.9112C14.2392 44.1456 13.3741 44.6057 13.1194 44.8574C13.0616 44.9153 13.0211 44.9211 13.0471 45.0252L16.7653 46.7845H17.1096C17.8272 46.1508 18.6316 45.5866 19.3087 44.9153C20.0349 44.1948 19.4331 44.5999 19.1322 43.9865C18.8312 43.7839 16.8058 42.9477 16.7132 42.803ZM26.0708 48.1271C26.149 48.2081 26.5511 47.9043 26.6437 47.8406C27.6073 47.1867 28.5043 46.4199 29.4852 45.7833C29.4186 45.1323 29.6356 44.4986 29.7224 43.8563L29.7861 43.3759L26.1692 46.0061L26.0708 48.1271ZM25.7844 45.9338L22.6941 44.4755C22.5378 45.1265 22.8532 45.6213 22.8648 46.2694L24.899 47.5426C25.0263 47.5831 25.0118 47.803 25.0523 47.8377C25.0812 47.8638 25.686 48.0287 25.7959 48.0576C25.8046 47.3314 25.929 46.6572 25.7844 45.9309V45.9338ZM30.4748 44.895L29.7948 44.6115L29.5893 45.6444L30.4777 45.086V44.895H30.4748ZM16.9071 47.9882C16.9881 48.0779 17.2687 47.7857 17.3671 47.7307C17.5031 47.6554 17.7317 47.5166 17.8503 47.45C18.4059 47.1433 18.9701 46.5733 19.491 46.1971L19.6617 44.7504C19.2768 45.1525 18.8862 45.5837 18.4233 45.8904C17.8532 46.6369 16.774 46.8395 16.9042 47.9882H16.9071ZM22.4192 44.8892C22.1704 44.8516 22.0749 45.1207 21.8694 45.1988L22.3498 45.439L22.4192 44.8892ZM20.6976 45.3725L19.9076 44.9587L19.6646 46.1306C19.7514 46.2145 20.524 45.6416 20.6252 45.5403C20.6831 45.4824 20.7236 45.4795 20.6976 45.3725ZM13.0471 45.0947V46.1624L16.5946 48.1271C16.7421 48.1416 16.6814 48.1126 16.6958 48.0229C16.7277 47.8233 16.8347 47.2677 16.8318 47.1201C16.826 46.906 13.4609 45.3667 13.0471 45.0947ZM22.4886 45.9917C22.4944 45.8962 22.4973 45.8065 22.4539 45.7168C22.4018 45.6097 21.6437 45.1699 21.5917 45.4072C21.5974 45.6039 22.425 46.0582 22.4858 45.9917H22.4886ZM24.8324 47.6468L21.013 45.3667C20.7091 45.7515 20.1738 45.9801 19.7774 46.281C19.4534 46.527 19.2305 46.7671 18.9354 47.0247C18.8197 47.1259 18.6027 47.2069 18.5216 47.2995C18.1426 47.7191 18.7763 48.0027 19.0888 48.185C20.0581 48.7521 21.0969 49.2064 22.1067 49.6896L23.6518 48.7116C23.8226 48.4946 24.0309 48.3065 24.2421 48.13C24.4534 47.9535 24.7543 47.9101 24.8266 47.6468H24.8324ZM18.3538 47.7828C17.9834 48.0576 18.5187 48.5843 18.1137 48.8852C17.8966 48.891 18.0616 47.6236 18.0789 47.4384L16.9505 48.1936L16.9418 48.3354L21.9389 51.0206C21.9562 50.7949 22.1241 50.005 22.0112 49.8835C21.1432 49.3887 20.1275 49.0559 19.274 48.5524C18.9759 48.3759 18.4753 48.0953 18.3567 47.7799L18.3538 47.7828ZM24.9684 48.9546C25.0783 49.0617 25.6599 48.5148 25.793 48.4396L24.9684 47.9911V48.9546ZM24.763 48.0576C24.6414 47.9274 23.7039 48.8997 23.5882 48.9836C23.3509 49.1514 22.4105 49.5565 22.3121 49.7793L22.263 49.8314C22.2282 50.06 22.2687 50.601 22.2138 50.8817L24.6993 49.1977C24.844 48.8186 24.8411 48.4454 24.763 48.0547V48.0576Z" fill="#E16A26"/>
<path d="M50.7467 29.4263C50.3417 29.814 49.1322 30.6676 48.6576 30.9946C48.5216 31.0872 48.3336 31.2463 48.1802 31.2405C48.3017 31.0206 50.469 29.5218 50.7467 29.4263Z" fill="#E16A26"/>
<path d="M65.0726 23.1821C64.9539 23.1994 65.006 23.0258 65.0031 22.9419C64.98 22.1144 65.3185 21.31 65.4661 20.5084C66.1866 16.5733 66.5743 13.7579 65.4545 9.81111C65.1738 8.82153 64.734 7.95926 64.4562 6.98704C64.5633 7.01597 64.6212 7.12882 64.6761 7.21563C65.7439 8.8794 66.5483 12.0796 66.664 14.0472C66.7826 16.0524 66.1808 19.189 65.7467 21.2C65.6079 21.8424 65.2896 22.5571 65.0755 23.1821H65.0726Z" fill="#E16A26"/>
<path d="M63.7647 21.391C63.6432 21.4083 63.701 21.2347 63.6981 21.1508C63.6027 18.7955 64.9973 16.935 64.5054 14.2093C64.0743 11.8308 63.2583 9.0588 61.4991 7.3603C61.4238 7.28796 61.3226 7.26192 61.3544 7.12593C61.7739 7.21273 62.0951 7.47315 62.3903 7.77986C63.9267 9.38866 65.1362 14.1456 65.0089 16.3302C64.9134 17.9998 64.2624 19.8053 63.7647 21.391Z" fill="#E16A26"/>
<path d="M34.1669 19.4726C34.1351 19.5449 34.054 19.5854 33.9788 19.5594C33.8081 19.5015 33.6605 19.3944 33.5679 19.2324C33.076 18.3817 32.5321 15.9425 32.48 14.9442C32.4568 14.4813 32.3903 14.1543 32.8532 13.9865C32.914 13.9633 32.9834 13.9807 33.024 14.0328C33.0818 14.1051 33.1339 14.2122 33.1599 14.2642C33.6027 15.141 34.3984 18.2949 34.2682 19.2122C34.2537 19.3047 34.2045 19.3829 34.1698 19.4668L34.1669 19.4726ZM32.8359 14.2411C32.7693 14.2498 32.7172 14.3047 32.7057 14.3713C32.6594 14.7069 32.8098 15.6155 32.8446 15.8238C32.9777 16.6051 33.4175 18.5148 33.7734 19.1659C33.8168 19.2469 33.9238 19.2932 34.0801 19.2642C34.1264 17.5831 33.5303 15.9222 33.0037 14.3453C32.9805 14.2758 32.9111 14.2324 32.8388 14.244L32.8359 14.2411Z" fill="#E16A26"/>
<path d="M36.2705 18.428C36.3428 18.4106 36.3804 18.4801 36.4152 18.59C36.4528 18.7058 36.5222 19.1601 36.7161 18.9083C36.7913 18.81 37.0517 17.6149 37.0807 17.4124C37.1877 16.5993 37.2282 15.3377 37.098 14.5362C37.0807 14.435 37.0951 14.325 36.962 14.2961C36.6264 15.1525 36.5511 16.1016 36.4788 17.0189C36.447 17.424 36.3804 17.9274 36.2734 18.292C36.2068 17.722 36.2242 17.0449 36.2734 16.4662C36.3081 16.0495 36.5367 14.4118 36.7884 14.1543C37.1993 13.7376 37.4221 14.6664 37.4481 14.9442C37.5436 15.9888 37.344 17.5339 37.1472 18.5785C37.072 18.972 37.0633 19.3973 36.5193 19.325C36.1403 19.2758 36.3052 18.6884 36.2734 18.428H36.2705Z" fill="#E16A26"/>
<path d="M29.5228 17.5194C29.5836 17.4269 29.7051 17.3863 29.8093 17.4297C30.0118 17.5166 30.2722 17.7278 30.3764 17.8088C30.9146 18.2226 32.4018 19.7272 32.6218 20.3204C32.7086 20.5519 32.6912 20.7891 32.3845 20.7718C31.7682 20.737 30.1507 18.8071 29.4852 18.0287C29.3839 17.913 29.3752 17.7422 29.4591 17.6149L29.5228 17.5194ZM31.9968 19.9413C31.4065 19.0385 30.5413 18.3875 29.7919 17.6294C29.6501 17.5571 29.4562 17.7307 29.5807 17.9101C29.7369 18.1358 30.3156 18.6566 30.55 18.8736C30.8625 19.163 31.3689 19.6317 31.719 19.84C31.8116 19.895 31.8608 19.976 31.9968 19.9384V19.9413Z" fill="#E16A26"/>
<path d="M50.9493 0.50845C49.734 0.55764 48.8631 0.572107 47.8532 1.30706C47.6999 1.41991 46.826 2.31979 46.745 2.23009C46.7566 1.35046 47.7491 0.737038 48.4696 0.404283C49.19 0.0715283 50.4429 -0.353819 50.9493 0.505556V0.50845Z" fill="#E16A26"/>
<path d="M51.0853 2.02465C49.3289 1.88287 48.0847 3.48588 46.745 4.3684L47.5002 3.36725C48.2844 2.75961 49.19 1.90023 50.2259 1.82211C50.495 1.80185 50.9377 1.75556 51.0853 2.02755V2.02465Z" fill="#E16A26"/>
</svg>
