<svg width="16" height="16" viewBox="0 0 16 16" fill="none" xmlns="http://www.w3.org/2000/svg">
<path d="M8 11.75C8.2125 11.75 8.39063 11.6781 8.53438 11.5344C8.67813 11.3906 8.75 11.2125 8.75 11C8.75 10.7875 8.67813 10.6094 8.53438 10.4656C8.39063 10.3219 8.2125 10.25 8 10.25C7.7875 10.25 7.60938 10.3219 7.46563 10.4656C7.32188 10.6094 7.25 10.7875 7.25 11C7.25 11.2125 7.32188 11.3906 7.46563 11.5344C7.60938 11.6781 7.7875 11.75 8 11.75ZM8 8.75C8.2125 8.75 8.39063 8.67813 8.53438 8.53438C8.67813 8.39063 8.75 8.2125 8.75 8V5C8.75 4.7875 8.67813 4.60938 8.53438 4.46562C8.39063 4.32187 8.2125 4.25 8 4.25C7.7875 4.25 7.60938 4.32187 7.46563 4.46562C7.32188 4.60938 7.25 4.7875 7.25 5V8C7.25 8.2125 7.32188 8.39063 7.46563 8.53438C7.60938 8.67813 7.7875 8.75 8 8.75ZM8 15.5C6.9625 15.5 5.9875 15.3031 5.075 14.9094C4.1625 14.5156 3.36875 13.9813 2.69375 13.3063C2.01875 12.6313 1.48438 11.8375 1.09063 10.925C0.696875 10.0125 0.5 9.0375 0.5 8C0.5 6.9625 0.696875 5.9875 1.09063 5.075C1.48438 4.1625 2.01875 3.36875 2.69375 2.69375C3.36875 2.01875 4.1625 1.48438 5.075 1.09063C5.9875 0.696875 6.9625 0.5 8 0.5C9.0375 0.5 10.0125 0.696875 10.925 1.09063C11.8375 1.48438 12.6313 2.01875 13.3063 2.69375C13.9813 3.36875 14.5156 4.1625 14.9094 5.075C15.3031 5.9875 15.5 6.9625 15.5 8C15.5 9.0375 15.3031 10.0125 14.9094 10.925C14.5156 11.8375 13.9813 12.6313 13.3063 13.3063C12.6313 13.9813 11.8375 14.5156 10.925 14.9094C10.0125 15.3031 9.0375 15.5 8 15.5ZM8 14C9.675 14 11.0938 13.4187 12.2563 12.2563C13.4187 11.0938 14 9.675 14 8C14 6.325 13.4187 4.90625 12.2563 3.74375C11.0938 2.58125 9.675 2 8 2C6.325 2 4.90625 2.58125 3.74375 3.74375C2.58125 4.90625 2 6.325 2 8C2 9.675 2.58125 11.0938 3.74375 12.2563C4.90625 13.4187 6.325 14 8 14Z" fill="#E5451D"/>
</svg>
