<svg width="61" height="60" viewBox="0 0 61 60" fill="none" xmlns="http://www.w3.org/2000/svg">
<path d="M25.8333 44L49.3333 20.5L44.6667 15.8333L25.8333 34.6667L16.3333 25.1667L11.6667 29.8333L25.8333 44ZM7.16667 60C5.33333 60 3.76389 59.3472 2.45833 58.0417C1.15278 56.7361 0.5 55.1667 0.5 53.3333V6.66667C0.5 4.83333 1.15278 3.26389 2.45833 1.95833C3.76389 0.652778 5.33333 0 7.16667 0H53.8333C55.6667 0 57.2361 0.652778 58.5417 1.95833C59.8472 3.26389 60.5 4.83333 60.5 6.66667V53.3333C60.5 55.1667 59.8472 56.7361 58.5417 58.0417C57.2361 59.3472 55.6667 60 53.8333 60H7.16667ZM7.16667 53.3333H53.8333V6.66667H7.16667V53.3333Z" fill="#E5451D"/>
</svg>
