<svg width="60" height="60" viewBox="0 0 60 60" fill="none" xmlns="http://www.w3.org/2000/svg">
<path d="M55.3333 60L34.3333 39C32.6667 40.3333 30.75 41.3889 28.5833 42.1667C26.4167 42.9444 24.1111 43.3333 21.6667 43.3333C15.6111 43.3333 10.4861 41.2361 6.29167 37.0417C2.09722 32.8472 0 27.7222 0 21.6667C0 15.6111 2.09722 10.4861 6.29167 6.29167C10.4861 2.09722 15.6111 0 21.6667 0C27.7222 0 32.8472 2.09722 37.0417 6.29167C41.2361 10.4861 43.3333 15.6111 43.3333 21.6667C43.3333 24.1111 42.9444 26.4167 42.1667 28.5833C41.3889 30.75 40.3333 32.6667 39 34.3333L60 55.3333L55.3333 60ZM21.6667 36.6667C25.8333 36.6667 29.375 35.2083 32.2917 32.2917C35.2083 29.375 36.6667 25.8333 36.6667 21.6667C36.6667 17.5 35.2083 13.9583 32.2917 11.0417C29.375 8.125 25.8333 6.66667 21.6667 6.66667C17.5 6.66667 13.9583 8.125 11.0417 11.0417C8.125 13.9583 6.66667 17.5 6.66667 21.6667C6.66667 25.8333 8.125 29.375 11.0417 32.2917C13.9583 35.2083 17.5 36.6667 21.6667 36.6667Z" fill="#E5451D"/>
</svg>
