<svg width="67" height="68" viewBox="0 0 67 68" fill="none" xmlns="http://www.w3.org/2000/svg">
<path d="M13 51C15.8333 48.8333 19 47.125 22.5 45.875C26 44.625 29.6666 44 33.5 44C37.3333 44 41 44.625 44.5 45.875C48 47.125 51.1666 48.8333 54 51C55.9444 48.7222 57.4583 46.1389 58.5416 43.25C59.625 40.3611 60.1666 37.2777 60.1666 34C60.1666 26.6111 57.5694 20.3194 52.375 15.125C47.1805 9.93052 40.8889 7.33329 33.5 7.33329C26.1111 7.33329 19.8194 9.93052 14.625 15.125C9.43052 20.3194 6.83329 26.6111 6.83329 34C6.83329 37.2777 7.37496 40.3611 8.45829 43.25C9.54163 46.1389 11.0555 48.7222 13 51ZM33.5 37.3333C30.2222 37.3333 27.4583 36.2083 25.2083 33.9583C22.9583 31.7083 21.8333 28.9444 21.8333 25.6666C21.8333 22.3888 22.9583 19.625 25.2083 17.375C27.4583 15.125 30.2222 14 33.5 14C36.7777 14 39.5416 15.125 41.7916 17.375C44.0416 19.625 45.1666 22.3888 45.1666 25.6666C45.1666 28.9444 44.0416 31.7083 41.7916 33.9583C39.5416 36.2083 36.7777 37.3333 33.5 37.3333ZM33.5 67.3333C28.8888 67.3333 24.5555 66.4583 20.5 64.7083C16.4444 62.9583 12.9166 60.5833 9.91663 57.5833C6.91663 54.5833 4.54163 51.0555 2.79163 47C1.04163 42.9444 0.166626 38.6111 0.166626 34C0.166626 29.3888 1.04163 25.0555 2.79163 21C4.54163 16.9444 6.91663 13.4166 9.91663 10.4166C12.9166 7.41663 16.4444 5.04163 20.5 3.29163C24.5555 1.54163 28.8888 0.666626 33.5 0.666626C38.1111 0.666626 42.4444 1.54163 46.5 3.29163C50.5555 5.04163 54.0833 7.41663 57.0833 10.4166C60.0833 13.4166 62.4583 16.9444 64.2083 21C65.9583 25.0555 66.8333 29.3888 66.8333 34C66.8333 38.6111 65.9583 42.9444 64.2083 47C62.4583 51.0555 60.0833 54.5833 57.0833 57.5833C54.0833 60.5833 50.5555 62.9583 46.5 64.7083C42.4444 66.4583 38.1111 67.3333 33.5 67.3333Z" fill="#E16A26"/>
</svg>
