<svg width="54" height="67" viewBox="0 0 54 67" fill="none" xmlns="http://www.w3.org/2000/svg">
<path d="M20.1468 2.42095C21.9205 2.22129 23.0808 3.39606 23.7405 4.90069C24.3974 6.39953 24.3221 7.85208 24.7157 9.37986C24.8864 10.0425 25.2567 10.6675 25.2336 11.3706C25.9425 11.4632 26.7353 11.6426 27.4298 11.8278C29.9298 12.4933 32.5079 12.8492 34.9934 13.5726C35.8499 13.8214 36.689 14.1773 37.5397 14.4435C38.6566 14.7936 41.5675 15.138 41.446 16.7786C41.3765 17.7045 41.0322 18.8301 40.8789 19.7792C40.1555 24.2554 39.3279 28.7057 38.564 33.1733C38.4686 33.7317 38.3933 34.2988 38.3239 34.8602L53.3094 34.9643L53.5611 35.1495C53.6132 37.2213 53.6161 39.2988 53.6017 41.3706C53.5843 44.0211 53.4743 46.7149 53.4483 49.3654C53.4165 52.7334 53.5409 56.1189 53.376 59.4753C53.3615 59.785 53.4859 60.8121 53.2342 60.9337L36.6514 60.8961C36.6601 61.6397 36.6167 62.3515 36.6514 63.0778C36.7006 63.1241 37.7423 63.1356 37.9159 63.1588C38.1879 63.1935 39.1398 63.4192 39.3713 63.5234C40.5287 64.0384 40.0484 64.8804 39.1746 65.3463C37.2822 66.3561 33.9228 66.7728 31.8366 66.333C30.4969 66.0494 29.5449 65.1958 31.1248 64.2786C31.8887 63.8359 32.7249 63.6391 33.5901 63.5089L33.8158 60.899C33.1011 60.8816 32.3835 60.9221 31.6688 60.899C28.2168 60.8035 24.7301 60.8035 21.2753 60.7485C20.1613 60.7311 18.5988 60.8903 17.56 60.7543C17.3893 60.7311 17.2996 60.6762 17.2012 60.5315C17.1462 57.5627 17.1462 54.5911 17.1607 51.6194C17.1723 48.752 17.2214 45.8295 17.2388 42.9707C17.2562 40.326 17.3459 37.6929 17.3111 35.0425C17.4298 34.4117 18.4772 34.9643 18.6045 34.5159L21.5501 16.1131L21.7122 15.9481C21.7295 16.3706 21.6456 17.23 21.5907 17.6466C21.0438 21.6628 20.277 25.6617 19.6462 29.6663C19.4466 30.9279 19.3626 32.3312 19.1225 33.5784C19.0067 34.1802 18.865 34.6113 18.7666 35.2566C18.4396 37.3833 18.1474 39.513 17.8001 41.6368C17.6989 42.256 17.3285 43.0865 17.7886 43.6536C18.0143 43.9314 18.9055 44.0297 19.2758 44.2005C20.0716 44.565 20.0195 44.4522 20.821 44.62C21.5444 44.7705 22.4587 45.0888 23.185 45.3087C25.9049 46.1304 29.0241 47.2994 31.7614 48.0749L31.88 48.2832L29.5652 47.7248L29.4321 47.8752C29.0907 48.2659 28.8071 48.4887 28.5409 48.7606C28.4917 48.8098 28.1705 49.2207 28.1705 49.2496C28.1705 49.4869 29.2238 49.9181 29.4929 50.028L36.1479 44.1802C36.4836 42.065 36.935 39.9701 37.3025 37.8608C38.266 32.3226 39.1543 26.7178 40.167 21.1623C40.3812 19.9933 40.6532 18.8619 40.8181 17.6669C40.8731 17.2792 41.1769 16.6715 40.5779 16.4111C39.597 15.9858 39.189 18.1906 38.9894 18.7433C38.7116 18.9227 36.7151 18.3179 36.2348 18.2138C34.3569 17.8058 32.4732 17.4962 30.6184 16.9956C28.4859 16.4198 26.2261 15.572 24.0936 15.083C24.0154 15.0656 23.9373 15.0598 23.8563 15.0656C24.1022 15.8613 23.5611 16.5384 22.7278 16.524C21.8945 16.5095 21.1595 15.8208 20.468 15.7253C18.3181 15.4302 17.4356 17.1981 15.9946 18.2948C15.1236 18.9603 12.6642 20.2711 11.6051 20.2306C11.2145 20.2161 10.5808 19.973 10.6184 19.5014C11.1508 19.5361 11.5444 19.6924 12.1086 19.6461C13.1532 19.5564 14.6896 18.5465 15.5258 17.8984C17.2822 16.5442 18.5177 14.3654 21.1422 15.2682C21.6167 15.4331 22.641 16.2201 23.0808 16.0697C23.3499 15.98 23.8447 15.6877 23.5669 14.9181C22.8841 14.7734 22.1057 14.484 21.4142 14.4146C20.8499 14.3596 20.4159 14.756 20.2539 13.9748C20.1323 13.3932 20.4246 12.9939 20.5085 12.447C19.4784 12.0795 18.3557 12.0969 17.2851 12.2329C16.5096 12.3312 15.1381 12.9042 14.6057 12.0593C13.7984 10.7832 15.7834 8.76354 16.6659 7.9794C17.8204 6.95509 20.549 4.92963 21.1451 7.55405C21.5125 9.16284 21.4373 10.3608 23.1532 11.2201C23.5814 11.4343 24.4986 11.8422 24.7938 11.304C24.6231 10.9858 24.4784 10.6414 24.3626 10.2971C23.6508 8.18773 23.9431 4.93541 22.071 3.425C20.1815 1.89722 16.1045 4.37986 14.3771 5.47072C13.8592 5.79768 13.3615 6.25775 12.8001 6.47477C12.6699 6.34456 13.5756 5.63854 13.7116 5.53148C15.3927 4.20335 17.5745 3.12407 19.6375 2.54537C19.38 1.63102 18.292 0.936572 17.3545 1.02338C16.9379 1.06099 16.2087 1.40532 15.8326 1.61655C14.5565 2.33414 13.3094 3.35266 12.2533 4.3625C11.8077 4.78784 11.3013 5.46782 10.8731 5.81794C10.792 5.88449 10.7573 5.99444 10.6184 5.96261C10.6532 5.76875 10.6995 5.55173 10.8036 5.38391C11.093 4.91805 12.071 3.98345 12.5079 3.59861C13.5611 2.67268 14.8198 1.8596 15.9859 1.07835L15.9946 0.875808C13.7029 -0.102201 11.637 1.45162 10.2944 3.2022C9.64332 4.05289 9.22955 5.08009 8.54378 5.88738C8.4483 5.84109 8.54378 5.68773 8.56115 5.6125C8.75501 4.84282 9.66358 3.35266 10.1815 2.72477C10.3464 2.52511 11.1942 1.79305 11.2 1.63391C10.167 1.53264 9.1601 2.51933 8.54957 3.27453C6.08429 6.30984 5.95987 8.65937 4.9674 12.201C4.45235 14.0384 3.08661 16.278 1.85108 17.7392C1.1277 18.5957 0.178623 20.1061 0.00211837 19.9267C-0.0152427 19.7502 0.0773502 19.6084 0.161262 19.4667C0.797836 18.3527 2.00443 17.1692 2.73939 16.0089C3.08661 15.4591 3.41358 14.8631 3.70003 14.2786C5.12943 11.388 5.15258 8.0228 6.68904 5.12349C7.48765 3.61597 9.3829 0.687729 11.3765 1.02048C11.5444 1.04942 11.7035 1.21435 11.744 1.21435C11.8164 1.21435 12.288 0.81215 12.4124 0.739812C13.7 -0.02697 14.7214 -0.243984 16.1653 0.308678C16.3939 0.395484 16.6427 0.624072 16.8424 0.653007C17.1694 0.699303 17.7249 0.545947 18.1474 0.580669C19.0964 0.658794 20.0282 1.44004 20.1468 2.3978V2.42095ZM21.7411 11.0031C21.8221 10.8874 21.4286 10.4418 21.3418 10.2797C21.0091 9.64317 20.8933 9.13102 20.7978 8.4221C20.7226 7.86365 20.8962 6.97535 20.2336 6.65706C19.3106 6.21146 18.0374 7.27627 17.3777 7.84051C16.501 8.58704 14.8574 10.1698 14.9124 11.3995C14.9558 12.3833 16.4344 11.767 17.0015 11.6831C18.2776 11.4921 19.5449 11.3937 20.7602 11.929C21.1161 11.6455 21.2174 11.087 21.7382 11.0002L21.7411 11.0031ZM25.0166 11.5182C24.3453 12.7711 22.8059 11.6831 21.9581 11.1854C21.6427 11.3243 20.8355 13.2745 20.8152 13.6796C20.7834 14.2902 21.3158 14.0731 21.7469 14.1657C22.2533 14.2728 22.8493 14.4522 23.3586 14.5911C27.9361 15.8382 32.3979 17.285 37.071 18.1877C37.6179 18.2948 38.1676 18.4018 38.7232 18.4973C38.9431 17.7392 38.9257 16.7207 39.6809 16.2549C40.1352 15.9742 40.332 16.1304 40.7949 16.2433C40.7226 15.7919 40.2278 15.5546 39.8343 15.4244C38.0403 14.8226 35.9338 14.322 34.0878 13.8243C31.9234 13.2398 29.7359 12.8231 27.5571 12.2821C26.7035 12.0708 25.8239 11.8509 25.0137 11.5182H25.0166ZM17.8898 35.4794V37.8781C17.8898 37.8781 17.9622 38.0893 18.0345 38.0604L18.3875 35.381C18.2429 35.2682 17.9419 35.2913 17.8898 35.4794ZM52.9419 35.5894L38.2863 35.4447C38.1821 35.4447 38.1618 35.4881 38.1184 35.5691C38.0721 35.6559 37.8204 36.9406 37.832 37.013C37.8696 37.1229 37.968 37.1142 38.0635 37.1229C39.4147 37.2502 41.3071 37.1779 42.7191 37.1953C45.2683 37.2271 48.2429 36.9811 50.7255 37.1895C50.902 37.2039 51.1566 37.2242 51.2637 37.3804C51.4026 37.583 51.3534 39.4464 51.3447 39.8515C51.2463 46.0552 51.2521 52.2936 51.1566 58.4973L50.9772 58.7549C48.5177 58.8069 46.0525 58.8127 43.593 58.7954C38.321 58.7578 33.0201 58.6131 27.7452 58.5726C25.0889 58.5523 22.4298 58.6218 19.7735 58.5436C19.597 58.4568 19.4089 58.3266 19.4089 58.1067L19.5565 44.7242C19.49 44.3741 18.2486 44.1339 17.887 44.0326L17.7394 60.1061L52.7249 60.3637L52.939 35.5951L52.9419 35.5894ZM29.244 47.5801C28.6798 47.256 26.7498 46.7641 26.0206 46.55C25.6995 46.4545 25.3175 46.4285 25.0021 46.333C23.5959 45.9105 21.8135 45.1351 20.4564 44.8428C20.3754 44.8255 20.3001 44.8197 20.2191 44.8255L20.1063 57.8492L50.5461 58.1356L50.6908 37.8434L37.7423 37.8029L37.0826 41.3966C37.4732 41.116 37.8898 40.8556 38.0577 40.9944C38.1474 41.0697 38.9749 41.7005 39.0212 41.7699C39.082 41.8625 39.1833 41.9348 39.1196 42.0072C38.8418 42.3052 37.7944 43.0922 37.4558 43.4076C35.7776 44.9557 34.0791 46.4777 32.3661 47.991C31.637 48.6362 30.7168 49.2728 30.0368 49.9528C29.8922 50.0946 29.597 50.2913 29.5623 50.3C29.325 50.3521 29.0444 50.1409 28.8245 50.002C28.4686 49.7792 27.6265 49.5708 27.968 49.0471C28.1995 48.6941 28.7868 48.0575 29.0935 47.7161M38.6017 42.1229C38.6653 41.958 38.5872 41.8422 38.4743 41.7323C38.4396 41.6976 37.968 41.3475 37.9217 41.3359C37.8088 41.3098 37.1723 41.7728 37.0681 41.8365C37.0189 41.8683 36.7874 43.1299 36.7267 43.6623L38.6017 42.1229ZM36.1422 60.899H34.3569C34.3395 62.1084 34.1746 63.3903 34.1775 64.5477C34.082 64.73 33.6913 64.6895 33.6422 64.4869C33.5756 64.2149 33.5872 63.8098 33.5872 63.8098C32.7973 63.9024 32.1491 64.186 31.5444 64.484C31.2926 64.6084 30.8702 64.8197 30.9049 65.1524C30.9223 65.3203 31.0698 65.3781 31.1942 65.4505C32.6005 66.2606 37.7365 65.8613 39.1746 65.0598C39.6028 64.8226 40.115 64.3683 39.4147 64.0645C38.5264 63.6796 37.5368 63.6652 36.5791 63.6652C36.5878 63.888 36.6167 64.5187 36.3245 64.5448C36.1017 64.565 35.9859 64.4117 35.9946 64.2149C36.0409 63.1906 36.0872 61.9204 36.1422 60.9018V60.899Z" fill="#E16A26"/>
<path d="M8.48013 24.0211C8.37596 24.0413 8.28337 23.9574 8.28626 23.8532C8.28626 23.8069 8.29205 23.7606 8.30362 23.7143C8.36149 23.48 9.19483 22.5598 9.40895 22.2734C9.77932 21.7728 10.2915 20.9134 10.6908 20.4996C10.7978 20.3897 11.148 20.0164 11.2955 19.9643C11.4373 20.1437 9.80536 22.1953 9.61439 22.4759C9.42341 22.7566 8.80131 23.8822 8.5814 23.9892C8.54957 24.0066 8.51485 24.0153 8.48302 24.0211H8.48013Z" fill="#E16A26"/>
<path d="M38.5091 48.7549L38.6913 45.3781C38.755 45.1119 40.8268 45.164 41.2 45.1843C41.3736 45.219 41.608 45.2363 41.6196 45.3405C41.6948 45.9713 41.3939 48.6941 41.5212 48.8214L43.0027 48.9053L43.0345 48.9371C43.0866 48.9863 43.1126 49.0558 43.104 49.1281L43.0432 49.3133C42.2648 50.7369 41.0814 51.8017 40.1989 53.1762C40.1294 53.2572 39.9992 53.3903 39.9124 53.3237C39.4292 52.9331 38.2313 51.5153 37.913 51.087C37.6844 50.7832 36.5646 49.3914 36.5299 49.1223C36.5183 49.0442 36.5559 48.9169 36.6398 48.8793C36.7035 48.8503 37.8117 48.7722 37.9275 48.7578M41.2434 45.6819C40.4795 45.627 39.7272 45.6443 38.9749 45.7282L38.9026 48.9834C38.6624 49.2902 38.2863 49.2062 37.9246 49.2583C37.696 49.2931 37.2793 49.3307 37.2359 49.3683L39.9616 52.609L42.4674 49.3654C42.4876 49.3104 42.1983 49.2641 41.9986 49.2612C41.7209 49.2583 40.983 49.3336 41.0264 48.8446C41.038 48.7143 41.1103 47.609 41.119 47.4065C41.1422 46.8278 41.2347 46.3156 41.2434 45.679V45.6819Z" fill="#E16A26"/>
<path d="M35.9714 53.9777L43.049 54.1339L43.2544 51.9348C43.3036 51.4343 43.6624 51.5818 43.6682 51.9291C43.6769 52.3341 43.6624 53.2109 43.6335 53.6594C43.5409 55.0569 43.3528 54.7097 42.4905 54.7097C41.1132 54.7097 39.7446 54.6837 38.347 54.6721C37.777 54.6663 37.071 54.6779 36.527 54.6721C36.2145 54.6692 35.6966 54.7126 35.5374 54.6316C35.387 54.5564 35.4304 53.425 35.4767 53.072C35.5114 52.8145 35.4853 51.5876 35.8123 51.5847C36.174 51.5847 36.0901 52.583 36.0669 52.8608" fill="#E16A26"/>
<path d="M28.8968 19.131C28.8765 19.131 28.8534 19.131 28.8331 19.1223L23.4049 17.7334C23.2689 17.6987 23.185 17.5598 23.2226 17.4238C23.2573 17.2878 23.3962 17.2039 23.5322 17.2415L28.9604 18.6304C29.0964 18.6652 29.1804 18.804 29.1427 18.94C29.1138 19.0558 29.0096 19.131 28.8968 19.131Z" fill="#E16A26"/>
<path d="M28.5235 20.5922C28.5033 20.5922 28.4801 20.5922 28.4599 20.5836L23.0316 19.1947C22.8956 19.16 22.8117 19.0211 22.8493 18.8851C22.8841 18.7491 23.0229 18.6652 23.1589 18.7028L28.5872 20.0917C28.7232 20.1264 28.8071 20.2653 28.7695 20.4013C28.7405 20.517 28.6364 20.5922 28.5235 20.5922Z" fill="#E16A26"/>
<path d="M37.0854 25.6617C37.0652 25.6617 37.042 25.6617 37.0218 25.653L31.5936 24.2641C31.4576 24.2294 31.3736 24.0905 31.4113 23.9545C31.446 23.8185 31.5849 23.7375 31.7209 23.7722L37.1491 25.1611C37.2851 25.1958 37.369 25.3347 37.3314 25.4707C37.3025 25.5865 37.1983 25.6617 37.0854 25.6617Z" fill="#E16A26"/>
<path d="M36.7151 27.1229C36.6948 27.1229 36.6717 27.1229 36.6514 27.1142L31.2232 25.7253C31.0872 25.6906 31.0033 25.5517 31.0409 25.4157C31.0756 25.2797 31.2145 25.1987 31.3505 25.2334L36.7787 26.6223C36.9147 26.6571 36.9986 26.7959 36.961 26.9319C36.9321 27.0477 36.8279 27.1229 36.7151 27.1229Z" fill="#E16A26"/>
<path d="M36.2811 30.2566C36.2608 30.2566 36.2405 30.2566 36.2203 30.2479L21.8482 26.7525C21.7122 26.7207 21.6283 26.5818 21.6601 26.4458C21.6919 26.3098 21.8308 26.2259 21.9668 26.2578L36.3389 29.7531C36.4749 29.785 36.5588 29.9238 36.527 30.0598C36.4981 30.1756 36.3939 30.2537 36.2811 30.2537V30.2566Z" fill="#E16A26"/>
<path d="M35.9454 32.5078C35.9251 32.5078 35.9049 32.5078 35.8846 32.4991L21.5125 29.0037C21.3765 28.9719 21.2926 28.833 21.3245 28.697C21.3563 28.561 21.4952 28.4771 21.6312 28.5089L36.0033 32.0043C36.1393 32.0361 36.2232 32.175 36.1914 32.311C36.1624 32.4267 36.0583 32.5049 35.9454 32.5049V32.5078Z" fill="#E16A26"/>
<path d="M35.4767 34.6634C35.4564 34.6634 35.4361 34.6634 35.4159 34.6547L21.0438 31.1594C20.9078 31.1275 20.8239 30.9887 20.8557 30.8527C20.8875 30.7167 21.0264 30.6328 21.1624 30.6646L35.5345 34.16C35.6705 34.1918 35.7544 34.3307 35.7226 34.4667C35.6937 34.5824 35.5895 34.6605 35.4767 34.6605V34.6634Z" fill="#E16A26"/>
<path d="M34.6057 40.1524C34.5854 40.1524 34.5652 40.1524 34.5449 40.1437L20.1728 36.6484C20.0368 36.6165 19.9529 36.4777 19.9848 36.3417C20.0166 36.2057 20.1555 36.1218 20.2915 36.1536L34.6636 39.649C34.7996 39.6808 34.8835 39.8197 34.8517 39.9557C34.8227 40.0714 34.7185 40.1495 34.6057 40.1495V40.1524Z" fill="#E16A26"/>
<path d="M34.1341 42.3081C34.1138 42.3081 34.0936 42.3081 34.0733 42.2994L19.7012 38.8041C19.5652 38.7722 19.4813 38.6333 19.5131 38.4973C19.5449 38.3613 19.6838 38.2774 19.8198 38.3093L34.1919 41.8046C34.3279 41.8365 34.4118 41.9753 34.38 42.1113C34.3511 42.2271 34.2469 42.3052 34.1341 42.3052V42.3081Z" fill="#E16A26"/>
<path d="M24.5999 43.5205C24.5797 43.5205 24.5565 43.5205 24.5363 43.5118L19.108 42.1229C18.972 42.0882 18.8881 41.9493 18.9257 41.8133C18.9604 41.6773 19.0993 41.5934 19.2353 41.631L24.6636 43.0199C24.7996 43.0546 24.8835 43.1935 24.8459 43.3295C24.8169 43.4453 24.7128 43.5205 24.5999 43.5205Z" fill="#E16A26"/>
</svg>
