<svg width="17" height="15" viewBox="0 0 17 15" fill="none" xmlns="http://www.w3.org/2000/svg">
<path d="M15 12.525L12.75 10.275L13.8 9.225L16.05 11.475L15 12.525ZM12.3 3.525L11.25 2.475L13.5 0.225L14.55 1.275L12.3 3.525ZM3.75 3.525L1.5 1.275L2.55 0.225L4.8 2.475L3.75 3.525ZM1.05 12.525L0 11.475L2.25 9.225L3.3 10.275L1.05 12.525ZM5.6625 11.1187L8.025 9.69375L10.3875 11.1375L9.76875 8.4375L11.85 6.6375L9.1125 6.39375L8.025 3.84375L6.9375 6.375L4.2 6.61875L6.28125 8.4375L5.6625 11.1187ZM3.39375 14.25L4.6125 8.98125L0.525 5.4375L5.925 4.96875L8.025 0L10.125 4.96875L15.525 5.4375L11.4375 8.98125L12.6562 14.25L8.025 11.4563L3.39375 14.25Z" fill="#3D352D"/>
</svg>
