<svg width="20" height="21" viewBox="0 0 20 21" fill="none" xmlns="http://www.w3.org/2000/svg">
<path d="M2 2V8.025V8V18V2ZM5 12H7C7.28333 12 7.52083 11.9042 7.7125 11.7125C7.90417 11.5208 8 11.2833 8 11C8 10.7167 7.90417 10.4792 7.7125 10.2875C7.52083 10.0958 7.28333 10 7 10H5C4.71667 10 4.47917 10.0958 4.2875 10.2875C4.09583 10.4792 4 10.7167 4 11C4 11.2833 4.09583 11.5208 4.2875 11.7125C4.47917 11.9042 4.71667 12 5 12ZM5 16H6C6.28333 16 6.52083 15.9042 6.7125 15.7125C6.90417 15.5208 7 15.2833 7 15C7 14.7167 6.90417 14.4792 6.7125 14.2875C6.52083 14.0958 6.28333 14 6 14H5C4.71667 14 4.47917 14.0958 4.2875 14.2875C4.09583 14.4792 4 14.7167 4 15C4 15.2833 4.09583 15.5208 4.2875 15.7125C4.47917 15.9042 4.71667 16 5 16ZM2 20C1.45 20 0.979167 19.8042 0.5875 19.4125C0.195833 19.0208 0 18.55 0 18V2C0 1.45 0.195833 0.979167 0.5875 0.5875C0.979167 0.195833 1.45 0 2 0H9.175C9.44167 0 9.69583 0.05 9.9375 0.15C10.1792 0.25 10.3917 0.391667 10.575 0.575L15.425 5.425C15.6083 5.60833 15.75 5.82083 15.85 6.0625C15.95 6.30417 16 6.55833 16 6.825V7.525C16 7.80833 15.9042 8.04167 15.7125 8.225C15.5208 8.40833 15.2833 8.5 15 8.5C14.7167 8.5 14.4792 8.40417 14.2875 8.2125C14.0958 8.02083 14 7.78333 14 7.5V7H10C9.71667 7 9.47917 6.90417 9.2875 6.7125C9.09583 6.52083 9 6.28333 9 6V2H2V18H7.5C7.78333 18 8.02083 18.0958 8.2125 18.2875C8.40417 18.4792 8.5 18.7167 8.5 19C8.5 19.2833 8.40417 19.5208 8.2125 19.7125C8.02083 19.9042 7.78333 20 7.5 20H2ZM13.5 17C14.2 17 14.7917 16.7583 15.275 16.275C15.7583 15.7917 16 15.2 16 14.5C16 13.8 15.7583 13.2083 15.275 12.725C14.7917 12.2417 14.2 12 13.5 12C12.8 12 12.2083 12.2417 11.725 12.725C11.2417 13.2083 11 13.8 11 14.5C11 15.2 11.2417 15.7917 11.725 16.275C12.2083 16.7583 12.8 17 13.5 17ZM19.3 20.3C19.1167 20.4833 18.8833 20.575 18.6 20.575C18.3167 20.575 18.0833 20.4833 17.9 20.3L15.9 18.3C15.55 18.5333 15.1708 18.7083 14.7625 18.825C14.3542 18.9417 13.9333 19 13.5 19C12.25 19 11.1875 18.5625 10.3125 17.6875C9.4375 16.8125 9 15.75 9 14.5C9 13.25 9.4375 12.1875 10.3125 11.3125C11.1875 10.4375 12.25 10 13.5 10C14.75 10 15.8125 10.4375 16.6875 11.3125C17.5625 12.1875 18 13.25 18 14.5C18 14.9333 17.9417 15.3542 17.825 15.7625C17.7083 16.1708 17.5333 16.55 17.3 16.9L19.3 18.9C19.4833 19.0833 19.575 19.3167 19.575 19.6C19.575 19.8833 19.4833 20.1167 19.3 20.3Z" fill="#112648"/>
</svg>
