<svg width="22" height="22" viewBox="0 0 22 22" fill="none" xmlns="http://www.w3.org/2000/svg">
<path d="M11.0002 11C9.5335 11 8.27794 10.4778 7.2335 9.43331C6.18905 8.38887 5.66683 7.13331 5.66683 5.66665C5.66683 4.19998 6.18905 2.94442 7.2335 1.89998C8.27794 0.855535 9.5335 0.333313 11.0002 0.333313C12.4668 0.333313 13.7224 0.855535 14.7668 1.89998C15.8113 2.94442 16.3335 4.19998 16.3335 5.66665C16.3335 7.13331 15.8113 8.38887 14.7668 9.43331C13.7224 10.4778 12.4668 11 11.0002 11ZM0.333496 21.6666V17.9333C0.333496 17.1778 0.527941 16.4833 0.916829 15.85C1.30572 15.2166 1.82239 14.7333 2.46683 14.4C3.84461 13.7111 5.24461 13.1944 6.66683 12.85C8.08905 12.5055 9.5335 12.3333 11.0002 12.3333C12.4668 12.3333 13.9113 12.5055 15.3335 12.85C16.7557 13.1944 18.1557 13.7111 19.5335 14.4C20.1779 14.7333 20.6946 15.2166 21.0835 15.85C21.4724 16.4833 21.6668 17.1778 21.6668 17.9333V21.6666H0.333496ZM3.00016 19H19.0002V17.9333C19.0002 17.6889 18.9391 17.4666 18.8168 17.2666C18.6946 17.0666 18.5335 16.9111 18.3335 16.8C17.1335 16.2 15.9224 15.75 14.7002 15.45C13.4779 15.15 12.2446 15 11.0002 15C9.75572 15 8.52239 15.15 7.30016 15.45C6.07794 15.75 4.86683 16.2 3.66683 16.8C3.46683 16.9111 3.30572 17.0666 3.1835 17.2666C3.06127 17.4666 3.00016 17.6889 3.00016 17.9333V19ZM11.0002 8.33331C11.7335 8.33331 12.3613 8.0722 12.8835 7.54998C13.4057 7.02776 13.6668 6.39998 13.6668 5.66665C13.6668 4.93331 13.4057 4.30554 12.8835 3.78331C12.3613 3.26109 11.7335 2.99998 11.0002 2.99998C10.2668 2.99998 9.63905 3.26109 9.11683 3.78331C8.59461 4.30554 8.3335 4.93331 8.3335 5.66665C8.3335 6.39998 8.59461 7.02776 9.11683 7.54998C9.63905 8.0722 10.2668 8.33331 11.0002 8.33331Z" fill="#112648"/>
</svg>
